<?xml version="1.0" encoding="utf-8"?>
<!-- Generator: Adobe Illustrator 21.1.0, SVG Export Plug-In . SVG Version: 6.00 Build 0)  -->
<svg version="1.1" id="Layer_1" xmlns="http://www.w3.org/2000/svg" xmlns:xlink="http://www.w3.org/1999/xlink" x="0px" y="0px"
	 viewBox="0 0 100 100" style="enable-background:new 0 0 100 100;" xml:space="preserve">
<style type="text/css">
	.st0{fill:#333333;}
	.st1{fill:#FFFFFF;}
</style>
<g>
	<path class="st0" d="M0,43.5v12.8l10.7,0.9c0.4,2.1,0.9,4.1,1.6,6.1l-8.8,6.1l6.4,11.1l9.7-4.7c1.4,1.6,2.9,3.1,4.5,4.5L19.5,90
		l11,6.3l6.1-8.8c2,0.7,4,1.3,6.1,1.6l0.9,10.7h12.8l0.9-10.7c2.1-0.4,4.2-0.9,6.1-1.6l6.1,8.8l11-6.4l-4.6-9.7
		c1.6-1.4,3.1-2.9,4.5-4.5l9.7,4.6l6.4-11l-8.8-6.1c0.7-2,1.2-4,1.6-6.1l10.7-0.8V43.5l-10.7-0.9c-0.4-2.1-0.9-4.1-1.6-6.1l8.8-6.1
		l-6.4-11.1l-9.7,4.6c-1.4-1.6-2.9-3.1-4.5-4.5l4.6-9.7L69.6,3.6l-6.1,8.8c-2-0.7-4-1.2-6.1-1.6L56.5,0H43.7l-0.9,10.7
		c-2.1,0.4-4.2,0.9-6.1,1.6l-6.1-8.8L19.4,9.8l4.6,9.7c-1.6,1.4-3.1,2.9-4.5,4.5l-9.7-4.6l-6.4,11l8.8,6.1c-0.7,2-1.2,4-1.6,6.1
		L0,43.5z M50.1,16.1L50.1,16.1C68.9,16.1,84,31.4,84,50.2C83.9,68.8,68.7,84,49.9,83.9l0,0c-18.8,0-34-15.3-33.9-34
		S31.4,16.1,50.1,16.1z"/>
	<path class="st0" d="M50.1,18c17.7,0.1,32,14.5,32,32.2C82,67.7,67.6,82.1,49.9,82L50.1,18z"/>
</g>
<g>
	<polygon class="st1" points="53.8,35.6 45.9,35.6 46,39.6 39,39.6 38.8,28.1 61.2,28 61.2,43 53.8,50.5 53.8,59.6 46.2,59.6 
		46.2,47.3 53.8,39.6 	"/>
	<rect x="46.2" y="64.3" class="st1" width="7.7" height="7.7"/>
</g>
</svg>
