<?xml version="1.0" encoding="utf-8"?>
<!-- Generator: Adobe Illustrator 21.0.0, SVG Export Plug-In . SVG Version: 6.00 Build 0)  -->
<svg version="1.1" id="Layer_1" xmlns="http://www.w3.org/2000/svg" xmlns:xlink="http://www.w3.org/1999/xlink" x="0px" y="0px"
	 viewBox="0 0 100 105.6" style="enable-background:new 0 0 100 105.6;" xml:space="preserve">
<style type="text/css">
	.st0{fill:#FFFFFF;}
	.st1{fill:#333333;}
</style>
<path class="st0" d="M49.9,0L0,17.4l7.8,65L50,105.6l42.1-23.3l7.9-65L49.9,0z M87.3,79.2L49.9,99.9V5.4l44.5,15.5L87.3,79.2z"/>
<polygon class="st0" points="49.9,5.4 49.9,99.9 12.4,79.2 5.3,20.9 "/>
<path class="st1" d="M49.9,10.2L49.9,10.2L49.9,10.2L49.9,10.2L49.9,10.2L49.9,10.2L19.2,78.3h11.3L37,62.9c0.5,0,6.7,0,12.9,0
	c6.2,0,12.4,0,12.9,0l6.5,15.4h11.3h0L49.9,10.2z M40.8,53.7l9-21.5v0l9,21.5c-0.8,0-1.6,0-2.3,0c-0.1,0-0.2,0-0.2,0
	c-0.5,0-0.9,0-1.3,0c-0.4,0-0.8,0-1.2,0c-0.3,0-0.6,0-0.9,0c-0.3,0-0.5,0-0.7,0c-0.7,0-1.3,0-1.9,0C46,53.7,46.3,53.7,40.8,53.7z"/>
</svg>
