<?xml version="1.0" encoding="utf-8"?>
<!-- Generator: Adobe Illustrator 21.0.0, SVG Export Plug-In . SVG Version: 6.00 Build 0)  -->
<svg version="1.1" id="Layer_1" xmlns="http://www.w3.org/2000/svg" xmlns:xlink="http://www.w3.org/1999/xlink" x="0px" y="0px"
	 viewBox="0 0 100 104" style="enable-background:new 0 0 100 104;" xml:space="preserve">
<style type="text/css">
	.st0{fill:#009DD1;}
</style>
<path class="st0" d="M100,32.7L67.3,0L52.5,14.8l40.1,40.1L100,32.7z M69.9,65.6L59.4,55.1l13.8-13.8L62.3,30.5L48.5,44.3L38,33.7
	l0.6-16.3L27.7,6.6H13.3l12.1,12v7.2l-6,6h-7.2L0,19.9v14.5l10.8,10.8l16.3-0.6l10.5,10.5L6.1,86.6L17,97.4l31.5-31.5l10.5,10.5
	l-0.6,16.3l10.8,10.8h14.5l-12.1-12v-7.2l6-6H85l12.1,12V75.9L86.2,65L69.9,65.6z"/>
</svg>
