<?xml version="1.0" encoding="utf-8"?>
<!-- Generator: Adobe Illustrator 21.1.0, SVG Export Plug-In . SVG Version: 6.00 Build 0)  -->
<svg version="1.1" id="Layer_1" xmlns="http://www.w3.org/2000/svg" xmlns:xlink="http://www.w3.org/1999/xlink" x="0px" y="0px"
	 viewBox="0 0 100 100" style="enable-background:new 0 0 100 100;" xml:space="preserve">
<style type="text/css">
	.st0{fill:#333333;}
	.st1{fill:#FFFFFF;}
</style>
<g>
	<path class="st0" d="M89.9,19.3l-9-9.1l-8.2,6.9c-1.8-1.2-3.5-2.3-5.4-3.2l1.9-10.5L56.8,0l-3.6,10.2c-2.1-0.1-4.2-0.2-6.4,0
		L43.3,0L31,3.3l1.9,10.5c-1.9,0.9-3.8,1.9-5.5,3.2l-8.2-7l-9.1,9l6.9,8.2c-1.2,1.8-2.3,3.6-3.2,5.4L3.3,30.8L0,43.1l10.1,3.6
		c-0.1,2.1-0.2,4.2,0,6.4L0,56.6l3.2,12.3l10.5-1.8c0.9,1.9,2,3.7,3.2,5.5l-7,8.1l9,9.1l8.2-6.9c1.8,1.2,3.5,2.3,5.4,3.2l-1.9,10.5
		L43,100l3.6-10.1c2.1,0.1,4.2,0.2,6.4,0l3.6,10.1L69,96.7l-1.9-10.5c1.9-0.9,3.7-2,5.5-3.2l8.2,7l9.1-9L83,72.8
		c1.2-1.8,2.3-3.6,3.2-5.4l10.5,1.9l3.4-12.4L90,53.3c0.1-2.1,0.2-4.2,0-6.4l10.1-3.6l-3.4-12.4l-10.5,1.9c-0.9-1.9-2-3.7-3.2-5.5
		L89.9,19.3z M73.8,74.1L73.8,74.1C60.5,87.4,39,87.3,25.8,74c-13.1-13.2-13.1-34.8,0.3-48l0,0C39.4,12.8,61,12.9,74.2,26.2
		C87.2,39.3,87.1,60.8,73.8,74.1z"/>
	<path class="st0" d="M82,50.1c-0.1,17.7-14.5,32-32.2,32C32.3,82,17.9,67.6,18,49.9L82,50.1z"/>
</g>
<polygon class="st1" points="30,30 30,60 50,60 60,70 60,60 70,60 70,30 "/>
</svg>
