<?xml version="1.0" encoding="utf-8"?>
<!-- Generator: Adobe Illustrator 21.0.0, SVG Export Plug-In . SVG Version: 6.00 Build 0)  -->
<svg version="1.1" id="Layer_1" xmlns="http://www.w3.org/2000/svg" xmlns:xlink="http://www.w3.org/1999/xlink" x="0px" y="0px"
	 viewBox="0 0 100 141" style="enable-background:new 0 0 100 141;" xml:space="preserve">
<style type="text/css">
	.st0{fill:#FFFFFF;}
	.st1{fill:#333333;}
</style>
<g>
	<g>
		<g>
			<path class="st0" d="M0,27l9,103l41,11l41-11l9-103H0z M83,123l-33,9V36h41L83,123z"/>
		</g>
	</g>
	<path class="st1" d="M81,52l-1,6v3l0,0H50l0,0H32l1,13h17l0,0h26h3v3l-3,33v2l-26,8l0,0l0,0l-26-7l-2-20h6h7l1,10l14,4l0,0l0,0
		l14-4l1-16H50l0,0H22l-3-35v-3h31l0,0h31V52z"/>
	<g>
		<g>
			<path class="st1" d="M21,6h-5V0H9v19h6v-6h6v6h6V0h-6V6z M31,6h6v13h6V6h6V0H31V6z M62,7l-4-7h-7v19h6v-9l4,7l0,0l5-7v9h6V0h-6
				L62,7z M82,13V0h-6v19h15v-6H82z"/>
		</g>
	</g>
</g>
</svg>
