<?xml version="1.0" encoding="utf-8"?>
<!-- Generator: Adobe Illustrator 21.0.0, SVG Export Plug-In . SVG Version: 6.00 Build 0)  -->
<svg version="1.1" id="Layer_1" xmlns="http://www.w3.org/2000/svg" xmlns:xlink="http://www.w3.org/1999/xlink" x="0px" y="0px"
	 viewBox="0 0 100 44" style="enable-background:new 0 0 100 44;" xml:space="preserve">
<style type="text/css">
	.st0{fill-rule:evenodd;clip-rule:evenodd;fill:#FFFFFF;}
</style>
<g>
	<g>
		<path class="st0" d="M50.2,27.9c7.9,0,13-2.5,16-5.7h-3c-2.6,2.4-7.1,4.1-13,4.1c-12,0-16.5-6.6-16.5-12.4
			c0.1-5.1,4.9-12.2,16.8-12.4c0.5,0,0.8,0.4,0.5,0.8c-2,2.5-7.8,10.4-8.5,11.5c-1.3,2-1.4,2.9-1.4,3.6c0,0.6,0,1.8,1,2.7
			c1.7,1.5,4.2,1.3,6.3,1.3h17.8c0.8,0,1-0.2,1.4-0.8c1.4-2.1,2.1-4.5,2.1-6.5c0-4.4-2.9-10.1-10.4-12.6l-0.8,1.2
			c5.9,2.8,8.3,6.4,8.3,11.4c0,1.4-0.3,2.8-1.2,4.2H48.2c-1,0-1.2-1.2-0.8-1.8c1.5-2.7,3.1-5.1,5-7.5c1.8-2.3,3.5-4.4,5.3-6.7
			c0.5-0.6,0.2-1.2-0.8-1.4c-2-0.4-4.1-0.7-6.7-0.7C35.9,0,30.7,8,30.7,14C30.7,20.4,35.9,27.9,50.2,27.9z M96,36.8H84.6
			c0.2-1.4,1.3-2.5,2.6-2.5h11.5l0-2.4H86.4c-3.9,0-7,3.2-7.1,6.8c0,0.3,0.2,0.4,0.4,0.4l13.9,0c0.7,0.1,1.3,0.7,1.3,1.3
			c0,0.7-0.7,1.3-1.5,1.3H78.2v-9.8h-4.5v9.8h-8.3c-2.2,0-2.7-1.3-2.7-2.6v-7.3h-7.5c-0.7,0.5-1.5,1-2.2,1.5L48.6,36l-5.8-4.1H25.5
			c-2.3,0-4.1,0.6-5.4,1.6c-2.3,1.8-3.1,3.7-3.1,4.6h3.1c-1.3,1-2.2,2.2-2.7,3.5h-10c-1.8,0-3-1.3-3-2.5v-7.3H0v7.6
			C0,42.1,2.6,44,6.9,44h33.6c0.7-0.5,1.4-1,2.1-1.4l4.5-2.7l5.8,4.1h6.6l-8.7-6.4l4.5-2.9c0.9-0.6,2-1.1,2.9-1.7v6.5
			c0,2.7,0.7,4.6,6.3,4.6L96,44c2.4,0,4-1.6,4-3.6C100,38.4,98.2,36.8,96,36.8z M39.6,41.6H23.2c0.1-1.3,1.4-2.5,2.7-2.5h10.3v-2.5
			H23.1c-0.1-0.7,1.3-2.2,2.3-2.2h11.8V33l7.6,5.4L39.6,41.6z"/>
	</g>
</g>
</svg>
