<?xml version="1.0" encoding="utf-8"?>
<!-- Generator: Adobe Illustrator 21.0.0, SVG Export Plug-In . SVG Version: 6.00 Build 0)  -->
<svg version="1.1" id="Layer_1" xmlns="http://www.w3.org/2000/svg" xmlns:xlink="http://www.w3.org/1999/xlink" x="0px" y="0px"
	 viewBox="0 0 100 112.9" style="enable-background:new 0 0 100 112.9;" xml:space="preserve">
<style type="text/css">
	.st0{fill:#FFFFFF;}
</style>
<g>
	<g>
		<path class="st0" d="M95.7,25L54.3,1.1c-2.6-1.5-6.1-1.5-8.7,0L4.3,25C1.7,26.6,0,29.5,0,32.6v47.7c0,3.1,1.7,6,4.3,7.5L15.1,94
			c5.2,2.6,7.1,2.6,9.5,2.6c7.8,0,12.2-4.7,12.2-12.9V36.6c0-0.7-0.5-1.2-1.2-1.2h-5.2c-0.7,0-1.2,0.5-1.2,1.2v47.1
			c0,3.6-3.8,7.3-9.9,4.2L8.1,81.4c-0.4-0.2-0.7-0.6-0.7-1.1V32.6c0-0.5,0.3-0.9,0.7-1.1L49.4,7.6c0.4-0.2,0.9-0.2,1.3,0L92,31.5
			c0.4,0.2,0.6,0.7,0.6,1.1v47.7c0,0.5-0.2,0.9-0.6,1.1l-41.3,23.9c-0.4,0.2-0.9,0.2-1.3,0L38.7,99c-0.3-0.2-0.7-0.3-1-0.1
			c-2.9,1.7-3.5,1.9-6.2,2.8c-0.7,0.2-1.7,0.6,0.4,1.8l13.8,8.2c1.3,0.8,2.8,1.2,4.3,1.2s3-0.4,4.4-1.2l41.3-23.9
			c2.7-1.6,4.3-4.4,4.3-7.5V32.6C100,29.5,98.3,26.6,95.7,25z M62.8,72.7c-10.9,0-13.3-2.8-14.1-8.2c-0.1-0.6-0.6-1-1.2-1h-5.3
			c-0.7,0-1.2,0.5-1.2,1.2c0,7,3.8,15.3,21.9,15.3c13.1,0,20.6-5.2,20.6-14.2c0-8.9-6-11.3-18.7-13c-12.8-1.7-14.1-2.6-14.1-5.6
			c0-2.5,1.1-5.8,10.6-5.8c8.5,0,11.6,1.8,12.9,7.6c0.1,0.5,0.6,0.9,1.2,0.9h5.4c0.3,0,0.6-0.1,0.9-0.4c0.2-0.3,0.3-0.6,0.3-0.9
			c-0.8-9.9-7.4-14.5-20.6-14.5c-11.8,0-18.8,5-18.8,13.3c0,9.1,7,11.6,18.3,12.7c13.5,1.3,14.6,3.3,14.6,6
			C75.2,70.8,71.5,72.7,62.8,72.7z"/>
	</g>
</g>
</svg>
