<?xml version="1.0" encoding="utf-8"?>
<!-- Generator: Adobe Illustrator 21.0.0, SVG Export Plug-In . SVG Version: 6.00 Build 0)  -->
<svg version="1.1" id="Layer_1" xmlns="http://www.w3.org/2000/svg" xmlns:xlink="http://www.w3.org/1999/xlink" x="0px" y="0px"
	 viewBox="0 0 100 89" style="enable-background:new 0 0 100 89;" xml:space="preserve">
<style type="text/css">
	.st0{fill:#FFFFFF;}
</style>
<g>
	<path class="st0" d="M82.2,28.8c-1-0.4-2.1-0.7-3.2-1c0.2-0.7,0.3-1.5,0.5-2.2c2.4-11.8,0.8-21.4-4.6-24.5
		c-5.2-3-13.7,0.1-22.4,7.6c-0.8,0.7-1.7,1.5-2.5,2.3c-0.6-0.5-1.1-1-1.7-1.5c-9-8-18.1-11.4-23.5-8.3c-5.2,3-6.8,12-4.6,23.2
		c0.2,1.1,0.5,2.2,0.7,3.3c-1.3,0.4-2.5,0.8-3.7,1.2C6.8,32.6,0,38.4,0,44.4c0,6.2,7.3,12.4,18.3,16.2c0.9,0.3,1.8,0.6,2.7,0.8
		c-0.3,1.2-0.6,2.4-0.8,3.6c-2.1,11-0.5,19.8,4.7,22.8c5.4,3.1,14.4-0.1,23.2-7.8c0.7-0.6,1.4-1.2,2.1-1.9c0.9,0.9,1.8,1.7,2.7,2.5
		c8.5,7.3,16.9,10.3,22.1,7.3c5.4-3.1,7.1-12.5,4.8-23.9c-0.2-0.9-0.4-1.8-0.6-2.7c0.6-0.2,1.3-0.4,1.9-0.6
		c11.5-3.8,18.9-9.9,18.9-16.2C100,38.4,93,32.6,82.2,28.8z M55.3,12c7.4-6.4,14.3-9,17.4-7.1c3.3,1.9,4.7,9.7,2.5,19.9
		c-0.1,0.7-0.3,1.3-0.4,2c-4.1-1-8.7-1.7-13.4-2.1c-2.7-3.9-5.6-7.5-8.5-10.5C53.8,13.4,54.6,12.6,55.3,12z M31.8,44.5
		c1.3-2.7,2.7-5.4,4.3-8.1l0,0l0,0l0,0c1.5-2.7,3.2-5.3,4.8-7.7c3-0.2,6-0.3,9.1-0.3l0,0c3.1,0,6.1,0.1,9.1,0.3
		c1.7,2.4,3.3,5,4.8,7.7c1.6,2.7,3,5.4,4.3,8c-1.3,2.7-2.7,5.4-4.3,8.1c-1.6,2.7-3.2,5.3-4.8,7.7c-3,0.2-6,0.3-9.2,0.3
		c-3.1,0-6.1-0.1-9.1-0.3c-1.7-2.5-3.3-5.1-4.9-7.8l0,0C34.5,49.9,33.1,47.2,31.8,44.5z M29.5,49.5c0.9,1.7,1.8,3.5,2.8,5.2l0,0
		c1,1.7,2.1,3.5,3.1,5.1c-3.3-0.4-6.4-0.9-9.2-1.5C27.2,55.5,28.3,52.5,29.5,49.5z M29.5,39.5c-1.2-3-2.3-5.9-3.2-8.7
		c2.9-0.6,5.9-1.2,9.1-1.6c-1.1,1.6-2.1,3.3-3.1,5l0,0C31.4,36,30.4,37.7,29.5,39.5z M67.7,54.7c1-1.8,2-3.5,2.9-5.3
		c1.3,3,2.5,6,3.4,8.8c-2.9,0.7-6,1.2-9.3,1.6C65.6,58.1,66.6,56.4,67.7,54.7z M70.5,39.5c-0.9-1.7-1.9-3.5-2.9-5.2s-2-3.4-3-5
		c3.2,0.4,6.2,0.9,9.1,1.6C72.9,33.6,71.8,36.5,70.5,39.5z M50,17.1c2,2.1,3.9,4.5,5.9,7.1c-2-0.1-3.9-0.1-5.9-0.1s-3.9,0-5.9,0.1
		C46.1,21.7,48,19.3,50,17.1z M27,5c3.3-1.9,10.7,0.8,18.5,7.7c0.5,0.4,1,0.9,1.5,1.4c-2.9,3.1-5.8,6.7-8.5,10.5
		c-4.7,0.4-9.2,1.1-13.3,2.1c-0.3-1-0.5-2.1-0.7-3.1C22.6,14,23.9,6.8,27,5z M22.1,57.3c-0.9-0.2-1.7-0.5-2.5-0.8
		c-4.9-1.7-8.9-3.8-11.7-6.2c-2.5-2.1-3.7-4.2-3.7-5.9c0-3.6,5.4-8.3,14.5-11.4c1.1-0.4,2.2-0.7,3.4-1.1C23.4,36,25,40.2,27,44.5
		C25.1,48.9,23.4,53.2,22.1,57.3z M45.3,76.8c-3.9,3.4-7.8,5.8-11.2,7c-3.1,1.1-5.5,1.1-7,0.3c-3.2-1.8-4.5-8.8-2.7-18.3
		c0.2-1.1,0.4-2.2,0.7-3.3c4.1,0.9,8.6,1.6,13.5,2c2.8,3.9,5.7,7.5,8.6,10.6C46.6,75.6,45.9,76.2,45.3,76.8z M50.2,72
		c-2-2.2-4-4.6-6-7.2c1.9,0.1,3.9,0.1,5.9,0.1s4.1,0,6-0.1C54.1,67.4,52.1,69.8,50.2,72z M76.1,77.9c-0.6,3.2-1.8,5.4-3.3,6.2
		c-3.2,1.8-9.9-0.5-17.2-6.8c-0.8-0.7-1.7-1.5-2.5-2.3c2.8-3.1,5.6-6.7,8.4-10.6c4.8-0.4,9.4-1.1,13.5-2.1c0.2,0.8,0.4,1.6,0.5,2.4
		C76.6,69.8,76.8,74.3,76.1,77.9z M79.7,56.6c-0.5,0.2-1.1,0.4-1.7,0.5c-1.3-4-3-8.3-5.1-12.7c2-4.3,3.6-8.5,4.9-12.5
		c1,0.3,2,0.6,3,0.9c9.3,3.2,14.9,7.9,14.9,11.5C95.7,48.3,89.6,53.3,79.7,56.6z"/>
	<path class="st0" d="M50,35.5c4.9,0,8.9,4,8.9,8.9s-4,8.9-8.9,8.9s-8.9-4-8.9-8.9S45.1,35.5,50,35.5"/>
</g>
</svg>
