<?xml version="1.0" encoding="utf-8"?>
<!-- Generator: Adobe Illustrator 21.1.0, SVG Export Plug-In . SVG Version: 6.00 Build 0)  -->
<svg version="1.1" id="Layer_1" xmlns="http://www.w3.org/2000/svg" xmlns:xlink="http://www.w3.org/1999/xlink" x="0px" y="0px"
	 viewBox="0 0 100 100" style="enable-background:new 0 0 100 100;" xml:space="preserve">
<style type="text/css">
	.st0{fill:#333333;}
	.st1{fill:#FFFFFF;}
</style>
<g>
	<path class="st0" d="M80.7,89.8l9.1-9l-6.9-8.2c1.2-1.8,2.3-3.5,3.2-5.4l10.5,1.9l3.4-12.4l-10.2-3.6c0.1-2.1,0.2-4.2,0-6.4
		l10.1-3.6L96.7,31l-10.5,1.9c-0.9-1.9-1.9-3.8-3.2-5.5l7-8.2l-9-9.1L72.8,17c-1.8-1.2-3.6-2.3-5.4-3.2l1.9-10.5L56.9,0l-3.6,10.1
		c-2.1-0.1-4.2-0.2-6.4,0L43.3,0L31,3.2l1.9,10.5c-1.9,0.9-3.7,2-5.5,3.2l-8.1-7l-9.1,9l6.9,8.2c-1.2,1.8-2.3,3.5-3.2,5.4L3.4,30.6
		L0.1,43l10.1,3.6c-0.1,2.1-0.2,4.2,0,6.4L0,56.5l3.3,12.4L13.8,67c0.9,1.9,2,3.7,3.2,5.5l-7,8.2l9,9.1l8.2-6.9
		c1.8,1.2,3.6,2.3,5.4,3.2l-1.9,10.5l12.4,3.4l3.6-10.1c2.1,0.1,4.2,0.2,6.4,0l3.6,10.1l12.4-3.3l-1.9-10.5c1.9-0.9,3.7-2,5.5-3.2
		L80.7,89.8z M25.9,73.8L25.9,73.8C12.7,60.5,12.7,39,26,25.8S60.8,12.7,74,26l0,0c13.2,13.3,13.1,34.9-0.2,48.1
		C60.7,87.2,39.1,87.1,25.9,73.8z"/>
	<path class="st0" d="M18,49.8c0.1-17.7,14.5-32,32.2-32C67.7,17.9,82,32.3,82,50L18,49.8z"/>
</g>
<path class="st1" d="M72,52.8v-5.6l-4.7-0.4c-0.2-0.9-0.4-1.8-0.7-2.7l3.9-2.7l-2.8-4.9l-4.3,2.1c-0.6-0.7-1.3-1.4-2-2l2-4.3
	l-4.8-2.8l-2.7,3.9c-0.9-0.3-1.8-0.6-2.7-0.7L52.8,28h-5.6l-0.4,4.7c-0.9,0.2-1.8,0.4-2.7,0.7l-2.7-3.9l-4.8,2.8l2,4.3
	c-0.7,0.6-1.4,1.3-2,2l-4.3-2l-2.8,4.8l3.9,2.7c-0.3,0.9-0.5,1.8-0.7,2.7L28,47.2v5.6l4.7,0.4c0.2,0.9,0.4,1.8,0.7,2.7l-3.9,2.7
	l2.8,4.9l4.3-2c0.6,0.7,1.3,1.4,2,2l-2,4.3l4.9,2.8l2.7-3.9c0.9,0.3,1.8,0.5,2.7,0.7l0.4,4.7h5.6l0.4-4.7c0.9-0.2,1.8-0.4,2.7-0.7
	l2.7,3.9l4.9-2.8l-2-4.3c0.7-0.6,1.4-1.3,2-2l4.3,2l2.8-4.9l-3.9-2.7c0.3-0.9,0.5-1.8,0.7-2.7L72,52.8z M50,61c-6.1,0-11-4.9-11-11
	s4.9-11,11-11s11,5,11,11C61,56.1,56.1,61,50,61z"/>
</svg>
