<?xml version="1.0" encoding="utf-8"?>
<!-- Generator: Adobe Illustrator 21.0.0, SVG Export Plug-In . SVG Version: 6.00 Build 0)  -->
<svg version="1.1" id="Layer_1" xmlns="http://www.w3.org/2000/svg" xmlns:xlink="http://www.w3.org/1999/xlink" x="0px" y="0px"
	 viewBox="0 0 30 30" style="enable-background:new 0 0 30 30;" xml:space="preserve" width="30px" height="30px">
<style type="text/css">
	.st0{fill:#FFFFFF;}
</style>
<g>
	<rect x="4.5" y="4.5" class="st0" width="1" height="1"/>
	<polygon points="6,4 4,4 4,6 6,6 6,4 	"/>
</g>
<g>
	<rect x="14.5" y="4.5" class="st0" width="1" height="1"/>
	<polygon points="16,4 14,4 14,6 16,6 16,4 	"/>
</g>
<g>
	<rect x="24.5" y="4.5" class="st0" width="1" height="1"/>
	<polygon points="26,4 24,4 24,6 26,6 26,4 	"/>
</g>
<g>
	<rect x="4.5" y="24.5" class="st0" width="1" height="1"/>
	<polygon points="6,24 4,24 4,26 6,26 6,24 	"/>
</g>
<g>
	<rect x="14.5" y="24.5" class="st0" width="1" height="1"/>
	<polygon points="16,24 14,24 14,26 16,26 16,24 	"/>
</g>
<g>
	<rect x="24.5" y="24.5" class="st0" width="1" height="1"/>
	<polygon points="26,24 24,24 24,26 26,26 26,24 	"/>
</g>
<g>
	<rect x="4.5" y="14.5" class="st0" width="1" height="1"/>
	<polygon points="6,14 4,14 4,16 6,16 6,14 	"/>
</g>
<g>
	<rect x="24.5" y="14.5" class="st0" width="1" height="1"/>
	<polygon points="26,14 24,14 24,16 26,16 26,14 	"/>
</g>
</svg>
