<?xml version="1.0" encoding="utf-8"?>
<!-- Generator: Adobe Illustrator 21.0.0, SVG Export Plug-In . SVG Version: 6.00 Build 0)  -->
<svg version="1.1" id="Layer_1" xmlns="http://www.w3.org/2000/svg" xmlns:xlink="http://www.w3.org/1999/xlink" x="0px" y="0px"
	 viewBox="0 0 100 100" style="enable-background:new 0 0 100 100;" xml:space="preserve">
<style type="text/css">
	.st0{fill-rule:evenodd;clip-rule:evenodd;}
</style>
<path class="st0" d="M100,56.3V43.5l-10.7-0.9c-0.4-2.1-0.9-4.1-1.6-6.1l8.8-6.1l-6.4-11.1L80.4,24c-1.4-1.6-2.9-3.1-4.5-4.5
	l4.6-9.7L69.5,3.5l-6.1,8.8c-2-0.7-4-1.3-6.1-1.6L56.4,0H43.6l-0.9,10.7c-2.1,0.4-4.2,0.9-6.1,1.6l-6.1-8.8L19.5,9.9l4.6,9.7
	c-1.6,1.4-3.1,2.9-4.5,4.5l-9.7-4.6L3.5,30.5l8.8,6.1c-0.7,2-1.2,4-1.6,6.1L0,43.5l0,12.8l10.7,0.9c0.4,2.1,0.9,4.1,1.6,6.1
	l-8.8,6.1l6.4,11.1l9.7-4.6c1.4,1.6,2.9,3.1,4.5,4.5l-4.6,9.7l11.1,6.4l6.1-8.8c2,0.7,4,1.2,6.1,1.6l0.9,10.7h12.8l0.9-10.7
	c2.1-0.4,4.2-0.9,6.1-1.6l6.1,8.8l11.1-6.4l-4.6-9.7c1.6-1.4,3.1-2.9,4.5-4.5l9.7,4.6l6.4-11.1l-8.8-6.1c0.7-2,1.2-4,1.6-6.1
	L100,56.3z M50,74.9c-13.8,0-25-11.2-25-24.9c0-13.8,11.2-25,25-25c13.8,0,25,11.2,25,25C75,63.7,63.8,74.9,50,74.9z"/>
</svg>
