<?xml version="1.0" encoding="utf-8"?>
<!-- Generator: Adobe Illustrator 21.0.0, SVG Export Plug-In . SVG Version: 6.00 Build 0)  -->
<svg version="1.1" id="Layer_1" xmlns="http://www.w3.org/2000/svg" xmlns:xlink="http://www.w3.org/1999/xlink" x="0px" y="0px"
	 viewBox="0 0 10 14.1" style="enable-background:new 0 0 10 14.1;" xml:space="preserve">
<style type="text/css">
	.st0{fill:#FFFFFF;}
	.st1{fill-rule:evenodd;clip-rule:evenodd;fill:#333333;}
	.st2{fill:#333333;}
</style>
<g>
	<g>
		<path class="st0" d="M0,2.7L0.9,13L5,14.1L9.1,13L10,2.7H0z M8.3,12.3L5,13.2V3.6h4.1L8.3,12.3z"/>
	</g>
</g>
<path class="st1" d="M8.1,5.2L8,5.8l0,0.3h0H5h0H3.2l0.1,1.3H5h0h2.6h0.3l0,0.3l-0.3,3.3l0,0.2L5,12v0l0,0l-2.6-0.7l-0.2-2h0.6h0.7
	l0.1,1L5,10.7l0,0v0l1.4-0.4l0.1-1.6H5h0H2.2L1.9,5.2l0-0.3H5h0h3.1L8.1,5.2z"/>
<g>
	<g>
		<path class="st2" d="M2.1,0.6H1.6V0H0.9v1.9h0.6V1.3h0.6v0.6h0.6V0H2.1V0.6z M3.1,0.6h0.6v1.3h0.6V0.6h0.6V0H3.1V0.6z M6.2,0.7
			L5.8,0H5.1v1.9h0.6V1l0.4,0.7h0L6.6,1v0.9h0.6V0H6.6L6.2,0.7z M8.2,1.3V0H7.6v1.9h1.5V1.3H8.2z"/>
	</g>
</g>
</svg>
