<?xml version="1.0" encoding="utf-8"?>
<!-- Generator: Adobe Illustrator 21.1.0, SVG Export Plug-In . SVG Version: 6.00 Build 0)  -->
<svg version="1.1" id="Layer_1" xmlns="http://www.w3.org/2000/svg" xmlns:xlink="http://www.w3.org/1999/xlink" x="0px" y="0px"
	 viewBox="0 0 100 100" style="enable-background:new 0 0 100 100;" xml:space="preserve">
<path d="M0,11.6c0-3.4,1.1-6.1,3.4-8.3C5.6,1.1,8.6,0,12.2,0c3.5,0,6.4,1.1,8.6,3.2c2.3,2.2,3.4,5.1,3.4,8.7c0,3.2-1.1,5.9-3.3,8.1
	c-2.3,2.2-5.2,3.3-8.9,3.3h-0.1c-3.5,0-6.4-1.1-8.6-3.3S0,15,0,11.6z M1.3,100V32.5h21.4V100H1.3z M34.6,100H56V62.3
	c0-2.4,0.3-4.2,0.8-5.5c0.9-2.3,2.3-4.2,4.1-5.8c1.8-1.6,4.1-2.4,6.9-2.4c7.2,0,10.8,5.1,10.8,15.3V100H100V61.3
	c0-10-2.3-17.5-6.8-22.7c-4.5-5.2-10.5-7.7-17.9-7.7c-8.3,0-14.8,3.7-19.4,11.2v0.2h-0.1l0.1-0.2v-9.6H34.6
	c0.1,2.2,0.2,8.9,0.2,20.1C34.7,63.9,34.7,79.7,34.6,100z"/>
</svg>
