<?xml version="1.0" encoding="utf-8"?>
<!-- Generator: Adobe Illustrator 16.0.0, SVG Export Plug-In . SVG Version: 6.00 Build 0)  -->
<!DOCTYPE svg PUBLIC "-//W3C//DTD SVG 1.1//EN" "http://www.w3.org/Graphics/SVG/1.1/DTD/svg11.dtd">
<svg version="1.1" id="Layer_1" xmlns="http://www.w3.org/2000/svg" xmlns:xlink="http://www.w3.org/1999/xlink" x="0px" y="0px"
	 width="100px" height="100px" viewBox="0 0 100 100" enable-background="new 0 0 100 100" xml:space="preserve">
<path d="M49.92,95.307c1.203,0,2.404-0.052,3.553-0.103l0.795,4.746l8.603-1.446l-0.795-4.744c2.302-0.601,4.551-1.446,6.701-2.442
	l2.451,4.193l7.504-4.398l-2.453-4.195c1.954-1.395,3.757-2.891,5.456-4.539l3.697,3.096l5.556-6.691l-3.704-3.094
	c1.304-1.995,2.557-4.041,3.554-6.19l4.499,1.599l3.004-8.186l-4.5-1.597c0.6-2.251,0.997-4.604,1.253-6.994h4.794v-8.639h-4.794
	c-0.256-2.398-0.704-4.745-1.253-6.989l4.5-1.598l-3.004-8.191l-4.499,1.599c-0.997-2.195-2.199-4.24-3.554-6.19l3.704-3.044
	l-5.556-6.694l-3.697,3.05c-1.699-1.599-3.502-3.197-5.456-4.546l2.402-4.194L71.178,4.49l-2.452,4.194
	c-2.099-0.998-4.398-1.797-6.699-2.443l0.794-4.745L54.269,0l-0.795,4.739c-1.2-0.046-2.401-0.097-3.553-0.097
	c-1.15,0-2.4,0.05-3.553,0.097L45.57,0l-8.552,1.446l0.797,4.745c-2.299,0.595-4.556,1.445-6.703,2.443l-2.403-4.093l-7.502,4.296
	l2.402,4.195c-1.95,1.394-3.751,2.891-5.453,4.54l-3.7-3.043l-5.554,6.637l3.702,3.095c-1.298,1.95-2.552,3.996-3.549,6.195
	l-4.504-1.598l-2.999,8.185l4.5,1.599c-0.6,2.245-1.003,4.592-1.252,6.989H0v8.69h4.8c0.25,2.391,0.703,4.743,1.252,6.994
	l-4.5,1.597l2.999,8.186l4.504-1.599c0.998,2.199,2.2,4.247,3.549,6.19l-3.702,3.094l5.554,6.691l3.7-3.096
	c1.701,1.597,3.502,3.196,5.453,4.539l-2.449,4.195l7.498,4.398l2.454-4.193c2.102,0.996,4.404,1.79,6.703,2.442l-0.797,4.744
	L45.57,100l0.798-4.745C47.57,95.255,48.771,95.307,49.92,95.307z M12.405,49.973c0-20.667,16.809-37.445,37.516-37.445
	c20.708,0,37.515,16.778,37.515,37.445c0,20.677-16.808,37.443-37.515,37.443C29.213,87.416,12.405,70.649,12.405,49.973z"/>
<path d="M85.001,50c0-19.279-15.656-35-35.001-35c-19.313,0-35.001,15.721-35.001,34.964C14.999,69.209,30.722,85,50,85
	C69.278,85,85.001,69.347,85.001,50z M19.478,50c0-16.851,13.705-30.491,30.558-30.491c16.915,0,30.589,13.64,30.589,30.491
	c0,16.819-13.675,30.492-30.589,30.492C33.182,80.492,19.478,66.819,19.478,50z"/>
</svg>
