<?xml version="1.0" encoding="utf-8"?>
<!-- Generator: Adobe Illustrator 16.0.0, SVG Export Plug-In . SVG Version: 6.00 Build 0)  -->
<!DOCTYPE svg PUBLIC "-//W3C//DTD SVG 1.1//EN" "http://www.w3.org/Graphics/SVG/1.1/DTD/svg11.dtd">
<svg version="1.1" id="Layer_1" xmlns="http://www.w3.org/2000/svg" xmlns:xlink="http://www.w3.org/1999/xlink" x="0px" y="0px"
	 width="100px" height="100px" viewBox="0 0 100 100" enable-background="new 0 0 100 100" xml:space="preserve">
<path fill-rule="evenodd" clip-rule="evenodd" d="M95.377,49.999c0,1.196-0.046,2.385-0.138,3.56l4.761,0.84l-1.506,8.564
	l-4.755-0.839c-0.641,2.314-1.46,4.547-2.437,6.698l4.181,2.411l-4.349,7.527l-4.186-2.416c-1.384,1.938-2.92,3.759-4.583,5.457
	l3.108,3.703l-6.658,5.59l-3.107-3.698c-1.948,1.343-4.013,2.538-6.17,3.57l1.653,4.527l-8.173,2.97l-1.648-4.521
	c-2.273,0.585-4.623,1.002-7.019,1.23v4.822h-8.7v-4.816c-2.401-0.229-4.748-0.642-7.024-1.226l-1.646,4.516l-8.171-2.975
	l1.646-4.517c-2.159-1.027-4.224-2.223-6.177-3.57l-3.092,3.688l-6.66-5.59l3.092-3.688c-1.668-1.693-3.204-3.52-4.59-5.457
	l-4.166,2.4l-4.344-7.527l4.153-2.401c-0.981-2.146-1.8-4.389-2.441-6.703l-4.725,0.834L0,54.398l4.73-0.834
	c-0.091-1.175-0.14-2.365-0.14-3.566c0-1.205,0.048-2.39,0.137-3.565L0,45.599l1.508-8.56l4.725,0.829
	c0.638-2.314,1.457-4.555,2.439-6.706l-4.153-2.398l4.346-7.53l4.163,2.403c1.386-1.94,2.925-3.764,4.59-5.46l-3.092-3.685
	l6.663-5.587l3.09,3.682c1.953-1.345,4.018-2.541,6.177-3.57l-1.643-4.514l8.171-2.976l1.643,4.517c2.278-0.587,4.625-1,7.026-1.226
	V0h8.7v4.822c2.396,0.229,4.745,0.643,7.019,1.23l1.648-4.524l8.173,2.976L69.545,9.03c2.151,1.03,4.216,2.228,6.164,3.57
	l3.107-3.695l6.658,5.587l-3.108,3.703c1.663,1.694,3.199,3.52,4.583,5.458l4.186-2.418l4.349,7.53l-4.181,2.414
	c0.981,2.149,1.796,4.387,2.437,6.698l4.755-0.836l1.506,8.56l-4.761,0.839C95.331,47.613,95.377,48.798,95.377,49.999z"/>
</svg>
