<?xml version="1.0" encoding="utf-8"?>
<!-- Generator: Adobe Illustrator 21.0.0, SVG Export Plug-In . SVG Version: 6.00 Build 0)  -->
<svg version="1.1" id="Layer_1" xmlns="http://www.w3.org/2000/svg" xmlns:xlink="http://www.w3.org/1999/xlink" x="0px" y="0px"
	 viewBox="0 0 100 100" style="enable-background:new 0 0 100 100;" xml:space="preserve">
<g>
	<path d="M12,0C5.4,0,0,5.4,0,12c0,6.6,5.4,12,12,12c6.6,0,12-5.4,12-12C24.1,5.4,18.7,0,12,0L12,0z M12,0"/>
	<rect x="1.7" y="33.2" width="20.8" height="66.8"/>
	<path d="M75.3,31.5c-10.1,0-16.9,5.5-19.6,10.8h-0.3v-9.1H35.4V100h20.7V67c0-8.7,1.7-17.1,12.5-17.1c10.6,0,10.8,10,10.8,17.7V100
		h20.7V63.4C100.2,45.4,96.3,31.5,75.3,31.5L75.3,31.5z M75.3,31.5"/>
</g>
</svg>
