<?xml version="1.0" encoding="utf-8"?>
<!-- Generator: Adobe Illustrator 16.0.0, SVG Export Plug-In . SVG Version: 6.00 Build 0)  -->
<!DOCTYPE svg PUBLIC "-//W3C//DTD SVG 1.1//EN" "http://www.w3.org/Graphics/SVG/1.1/DTD/svg11.dtd">
<svg version="1.1" id="Layer_1" xmlns="http://www.w3.org/2000/svg" xmlns:xlink="http://www.w3.org/1999/xlink" x="0px" y="0px"
	 width="100px" height="100px" viewBox="0 0 100 100" enable-background="new 0 0 100 100" xml:space="preserve">
<g>
	<g>
		<path fill-rule="evenodd" clip-rule="evenodd" d="M50.001,12.494c-20.68,0-37.505,16.825-37.505,37.504
			c0,20.68,16.825,37.5,37.505,37.5c20.677,0,37.502-16.819,37.502-37.5C87.504,29.319,70.679,12.494,50.001,12.494z M50.001,85.525
			c-19.592,0-35.532-15.936-35.532-35.527s15.94-35.531,35.532-35.531c19.588,0,35.529,15.94,35.529,35.531
			S69.59,85.525,50.001,85.525z M67.765,49.999c-9.812,0-17.763,7.95-17.763,17.766c0,6.194,3.171,11.646,7.982,14.826
			c12.115-2.961,21.652-12.492,24.612-24.612C79.417,53.167,73.964,49.999,67.765,49.999z M47.27,40.849l7.433-4.292l4.079,5.92
			c1.327-0.473,2.701-0.839,4.115-1.099l0.574-7.171h8.585l0.575,7.171c1.414,0.259,2.787,0.625,4.114,1.099l4.033-5.852
			c-5.167-11.876-17.002-20.184-30.778-20.184c-18.534,0-33.558,15.024-33.558,33.558c0,13.779,8.308,25.609,20.187,30.776
			l5.849-4.033c-0.473-1.327-0.839-2.7-1.099-4.114l-7.169-0.57l-0.002-8.585l7.171-0.574c0.259-1.414,0.625-2.793,1.099-4.115
			l-5.92-4.079l4.293-7.436l6.5,3.092c0.923-1.083,1.927-2.09,3.008-3.011L47.27,40.849z"/>
	</g>
</g>
</svg>
