<?xml version="1.0" encoding="utf-8"?>
<!-- Generator: Adobe Illustrator 21.0.0, SVG Export Plug-In . SVG Version: 6.00 Build 0)  -->
<svg version="1.1" id="Layer_1" xmlns="http://www.w3.org/2000/svg" xmlns:xlink="http://www.w3.org/1999/xlink" x="0px" y="0px"
	 viewBox="0 0 100 81.3" style="enable-background:new 0 0 100 81.3;" xml:space="preserve">
<g id="XMLID_33_">
	<g id="XMLID_35_">
		<path id="XMLID_32_" d="M31.4,81.3c37.7,0,58.4-31.3,58.4-58.4c0-0.9,0-1.8-0.1-2.7c4-2.9,7.5-6.5,10.2-10.6
			c-3.7,1.6-7.6,2.7-11.8,3.2c4.2-2.5,7.5-6.6,9-11.3c-4,2.4-8.4,4.1-13,5c-3.7-4-9.1-6.5-15-6.5C57.9,0,48.7,9.2,48.7,20.5
			c0,1.6,0.2,3.2,0.5,4.7C32.2,24.3,17.1,16.2,7,3.8c-1.8,3-2.8,6.6-2.8,10.3c0,7.1,3.6,13.4,9.1,17.1c-3.4-0.1-6.5-1-9.3-2.6
			c0,0.1,0,0.2,0,0.3c0,9.9,7.1,18.2,16.5,20.1c-1.7,0.5-3.5,0.7-5.4,0.7c-1.3,0-2.6-0.1-3.9-0.4c2.6,8.2,10.2,14.1,19.2,14.3
			c-7,5.5-15.9,8.8-25.5,8.8c-1.7,0-3.3-0.1-4.9-0.3C9.1,77.9,19.9,81.3,31.4,81.3"/>
	</g>
</g>
</svg>
